<svg width="40" height="40" viewBox="0 0 40 40" fill="none" xmlns="http://www.w3.org/2000/svg">
<g clip-path="url(#clip0_38_24)">
<path d="M40 20C40 8.9543 31.0457 0 20 0C8.9543 0 0 8.9543 0 20C0 31.0457 8.9543 40 20 40C31.0457 40 40 31.0457 40 20Z" fill="#1877F2"/>
<path d="M30 20C30 14.5 25.5 10 20 10C14.5 10 10 14.5 10 20C10 25 13.625 29.125 18.375 29.875V22.875H15.875V20H18.375V17.75C18.375 15.25 19.875 13.875 22.125 13.875C23.25 13.875 24.375 14.125 24.375 14.125V16.625H23.125C21.875 16.625 21.5 17.375 21.5 18.125V20H24.25L23.75 22.875H21.375V30C26.375 29.25 30 25 30 20Z" fill="white"/>
</g>
<defs>
<clipPath id="clip0_38_24">
<rect width="40" height="40" fill="white"/>
</clipPath>
</defs>
</svg>
